<?xml version="1.0"?>
<svg xmlns="http://www.w3.org/2000/svg" id="Layer_1" data-name="Layer 1" viewBox="0 0 64 64"><title>Icons8 RSL Colored Part 6</title><rect x="9" y="12.94" width="38" height="48" style="fill:#85cbf8;"/><rect x="32" y="12.94" width="15" height="48" style="fill:#7bbeeb;"/><rect x="9" y="12.94" width="11" height="48" style="fill:#9fddff;"/><rect x="7" y="8.94" width="42" height="4" rx="2" ry="2" style="fill:#f9dd8f;"/><path d="M35.76,48.43,46.89,54a4,4,0,0,1,2.22,3.58V60a1,1,0,0,1-1,1H16a1,1,0,0,1-1-1V57.55A4,4,0,0,1,17.22,54l11.13-5.54" style="fill:#ed7899;"/><path d="M41.24,40.33a.88.88,0,0,0-.7.16,8.66,8.66,0,0,0-.63-2.88c-.61-1.65,1.75-.67,1.75-.67a8.68,8.68,0,0,0-9-7.24H32A8.67,8.67,0,0,0,27.4,31h0c-2.18,0-3.7,1.48-3.95,3.95a26.92,26.92,0,0,0,.14,4.42,8.69,8.69,0,0,0-.12,1.1.88.88,0,0,0-.7-.16c-.7.19-1,1.48-.59,2.88s1.11,2.21,1.78,2.21c1.19,4,4.34,8,8.05,8s6.86-4,8.05-8c.67,0,1.43-.92,1.78-2.21S41.94,40.52,41.24,40.33Z" style="fill:#faefde;"/><path d="M45.76,48.43,56.89,54a4,4,0,0,1,2.22,3.58V60a1,1,0,0,1-1,1H26a1,1,0,0,1-1-1V57.55A4,4,0,0,1,27.22,54l11.13-5.54" style="fill:#72caaf;"/><path d="M26.68,36.95l1.05-1.6a.66.66,0,0,1,.84-.23l1,.5a13.16,13.16,0,0,0,5.77,1.33H37a14,14,0,0,0,3.25-.11c.81-.27.48-2.58.48-2.58s-1.27-3-4.08-3.79-6-1.26-9.17.57-3.73.55-3.9,2.7a19.41,19.41,0,0,0,.17,4.71C24,39.5,26.68,36.95,26.68,36.95Z" style="fill:#cda1a7;"/><path d="M51.24,40.33a.88.88,0,0,0-.7.16,8.66,8.66,0,0,0-.63-2.88c-.61-1.65,1.75-.67,1.75-.67a8.68,8.68,0,0,0-9-7.24H42A8.67,8.67,0,0,0,37.4,31h0c-2.18,0-3.7,1.48-3.95,3.95a26.92,26.92,0,0,0,.14,4.42,8.69,8.69,0,0,0-.12,1.1.88.88,0,0,0-.7-.16c-.7.19-1,1.48-.59,2.88s1.11,2.21,1.78,2.21c1.19,4,4.34,8,8.05,8s6.86-4,8.05-8c.67,0,1.43-.92,1.78-2.21S51.94,40.52,51.24,40.33Z" style="fill:#faefde;"/><path d="M36.68,36.95l1.05-1.6a.66.66,0,0,1,.84-.23l1,.5a13.16,13.16,0,0,0,5.77,1.33H47a14,14,0,0,0,3.25-.11c.81-.27.48-2.58.48-2.58s-1.27-3-4.08-3.79-6-1.26-9.17.57-3.73.55-3.9,2.7a19.41,19.41,0,0,0,.17,4.71C34,39.5,36.68,36.95,36.68,36.95Z" style="fill:#cda1a7;"/><path d="M15,28h2a1,1,0,0,0,0-2H15a1,1,0,0,0,0,2Z" style="fill:#8d6c9f;"/><path d="M15,20h2a1,1,0,0,0,0-2H15a1,1,0,0,0,0,2Z" style="fill:#8d6c9f;"/><path d="M15,24h2a1,1,0,0,0,0-2H15a1,1,0,0,0,0,2Z" style="fill:#8d6c9f;"/><path d="M23,20h2a1,1,0,0,0,0-2H23a1,1,0,0,0,0,2Z" style="fill:#8d6c9f;"/><path d="M23,24h2a1,1,0,0,0,0-2H23a1,1,0,0,0,0,2Z" style="fill:#8d6c9f;"/><path d="M23,28h2a1,1,0,0,0,0-2H23a1,1,0,0,0,0,2Z" style="fill:#8d6c9f;"/><path d="M31,20h2a1,1,0,0,0,0-2H31a1,1,0,0,0,0,2Z" style="fill:#8d6c9f;"/><path d="M31,24h2a1,1,0,0,0,0-2H31a1,1,0,0,0,0,2Z" style="fill:#8d6c9f;"/><path d="M39,20h2a1,1,0,0,0,0-2H39a1,1,0,0,0,0,2Z" style="fill:#8d6c9f;"/><path d="M39,24h2a1,1,0,0,0,0-2H39a1,1,0,0,0,0,2Z" style="fill:#8d6c9f;"/><path d="M15,40h2a1,1,0,0,0,0-2H15a1,1,0,0,0,0,2Z" style="fill:#8d6c9f;"/><path d="M15,32h2a1,1,0,0,0,0-2H15a1,1,0,0,0,0,2Z" style="fill:#8d6c9f;"/><path d="M15,36h2a1,1,0,0,0,0-2H15a1,1,0,0,0,0,2Z" style="fill:#8d6c9f;"/><path d="M15,44h2a1,1,0,0,0,0-2H15a1,1,0,0,0,0,2Z" style="fill:#8d6c9f;"/><path d="M15,48h2a1,1,0,0,0,0-2H15a1,1,0,0,0,0,2Z" style="fill:#8d6c9f;"/><path d="M57.34,53.07l-7.85-3.9a15.81,15.81,0,0,0,1.35-2.93,4.12,4.12,0,0,0,1.95-2.77,5.2,5.2,0,0,0,.13-2.36,2.11,2.11,0,0,0-1.42-1.75l-.08,0a10,10,0,0,0-.4-1.56l.25.09a1,1,0,0,0,1-.16,1,1,0,0,0,.33-1A9.85,9.85,0,0,0,48,30.05V13.82A3,3,0,0,0,47,8H30V4.06a1,1,0,0,0-2,0V8H26V1.06a1,1,0,0,0-2,0V8H9a3,3,0,0,0-1,5.82V60H5a1,1,0,0,0,0,2H15a1,1,0,0,0,.42-.1A2,2,0,0,0,16,62H58.11a2,2,0,0,0,2-2V57.55A5,5,0,0,0,57.34,53.07ZM50.23,35.66a1.58,1.58,0,0,0-1,.42A1.64,1.64,0,0,0,49,38a7.5,7.5,0,0,1,.58,2.58,1,1,0,0,0,.57.83,1.06,1.06,0,0,0,.82,0A3,3,0,0,1,50.86,43,2.83,2.83,0,0,1,50,44.43a1,1,0,0,0-1,.71,13.08,13.08,0,0,1-1.4,3.14,10.91,10.91,0,0,1-1.19,1.64A6.19,6.19,0,0,1,42,52.4,6.18,6.18,0,0,1,37.53,50a11.72,11.72,0,0,1-1.2-1.64,13.42,13.42,0,0,1-1.42-3.18.94.94,0,0,0-.91-.71A2.44,2.44,0,0,1,33.14,43a3,3,0,0,1-.07-1.54,1,1,0,0,0,1.39-.87,7.56,7.56,0,0,1,.11-1,4.08,4.08,0,0,0,0-1.18,13.85,13.85,0,0,1-.08-3.32c.19-1.94,1.27-3.05,3-3.05a1,1,0,0,0,.6-.2,7.79,7.79,0,0,1,4-1.11h.66A7.58,7.58,0,0,1,50.23,35.66ZM9,10H47a1,1,0,0,1,0,2H9a1,1,0,0,1,0-2Zm1,50V14H46V29.19a11.46,11.46,0,0,0-3.34-.48H42a10.31,10.31,0,0,0-4.5,1.08,10.72,10.72,0,0,0-4.84-1.08H32A9.94,9.94,0,0,0,27.08,30c-2.54.14-4.35,2-4.63,4.84a15.67,15.67,0,0,0,.09,3.77c0,.23.07.52.06.58l0,.13-.08,0a2.1,2.1,0,0,0-1.42,1.75,5.28,5.28,0,0,0,.12,2.36,4.15,4.15,0,0,0,2,2.77,15.65,15.65,0,0,0,1.37,3l-7.75,3.86A5,5,0,0,0,14,57.55V60Zm6,0V57.55a3,3,0,0,1,1.66-2.69l8.76-4.35,0,0,.09,0a.94.94,0,0,0,.09-.1,1,1,0,0,0,.13-.13,1.23,1.23,0,0,0,.16-.34,1,1,0,0,0,0-.2,1,1,0,0,0,0-.18,1,1,0,0,0-.05-.19.94.94,0,0,0,0-.12l0-.06s0,0,0-.07a13.48,13.48,0,0,1-1.89-3.9.93.93,0,0,0-.9-.71h0A2.43,2.43,0,0,1,23.14,43a3.07,3.07,0,0,1-.07-1.54,1,1,0,0,0,1.4-.87,7.77,7.77,0,0,1,.11-1,4,4,0,0,0,0-1.18,13.67,13.67,0,0,1-.08-3.31c.19-1.94,1.27-3,3-3a1,1,0,0,0,.6-.2,7.7,7.7,0,0,1,4-1.12h.66a10,10,0,0,1,1.89.19,5.39,5.39,0,0,0-2.1,4,15.67,15.67,0,0,0,.09,3.77c0,.23.06.52.06.58s0,.08,0,.12l-.08,0a2.11,2.11,0,0,0-1.42,1.75,5.2,5.2,0,0,0,.13,2.36,4.12,4.12,0,0,0,1.95,2.77,16.34,16.34,0,0,0,1.37,3l-7.76,3.85A5,5,0,0,0,24,57.55V60Zm42.11,0H26V57.55a3,3,0,0,1,1.66-2.69l8-4A8.35,8.35,0,0,0,42,54.4c2.46,0,4.67-1.48,6.33-3.57l8.12,4a3,3,0,0,1,1.66,2.69Z" style="fill:#8d6c9f;"/><path d="M39,34.22a1.66,1.66,0,0,0-2.11.58l-1.05,1.6a1,1,0,1,0,1.67,1.1l.89-1.35.76.37a14.24,14.24,0,0,0,6.2,1.43H47a1,1,0,0,0,0-2H45.37A12.23,12.23,0,0,1,40,34.72Z" style="fill:#8d6c9f;"/></svg>
