<?xml version="1.0"?>
<svg xmlns="http://www.w3.org/2000/svg" id="Layer_1" data-name="Layer 1" viewBox="0 0 64 64"><title>Dusk Part 4</title><path d="M30.87,16.49,12.14,10.06a1,1,0,0,1,0-1.89L30.87,1.74a4,4,0,0,1,2.6,0L52.19,8.17a1,1,0,0,1,0,1.89L33.47,16.49A4,4,0,0,1,30.87,16.49Z" style="fill:#8b8e98;"/><path d="M61,59.38a1,1,0,0,1-1,1H4a1,1,0,0,1-1-1v-8A9.37,9.37,0,0,1,8.3,43l14.07-6.73c2.55,3.21,5.91,5.5,9.63,5.5s7.08-2.29,9.63-5.5L55.7,43A9.37,9.37,0,0,1,61,51.41Z" style="fill:#8b8e98;"/><path d="M57,56H7a4,4,0,0,0-4,4H3a1,1,0,0,0,1,1H60a1,1,0,0,0,1-1h0A4,4,0,0,0,57,56Z" style="fill:#7e8189;"/><path d="M32,42.93c-3.18,0-6.08-2-8.3-4.93H21l8,23h6l8-23H40.3C38.08,40.89,35.18,42.93,32,42.93Z" style="fill:#72caaf;"/><path d="M32,47c4.1,0,7.82-2.12,10.57-5.56a2,2,0,0,0-.7-3.06l-.23-.11c-2.55,3.21-5.91,5.5-9.63,5.5s-7.08-2.29-9.63-5.5l-.23.11a2,2,0,0,0-.7,3.06C24.18,44.88,27.9,47,32,47Z" style="fill:#7dd8ba;"/><path d="M21,36.56C21,37,29,61,29,61H24.56L16,49l3-4-1-8Z" style="fill:#989ba3;"/><path d="M43,36.56C43,37,34,61,34,61h4.44L47,49l-2-4,1-8Z" style="fill:#989ba3;"/><path d="M44.65,23.31c0-.47-.06-3.89-.13-4.31h-25c-.06.43-.12,3.87-.14,4.31s-1.92.71-1.92.71c-.24.07-.72,1.36-.19,3.33s1.52,2.77,1.83,2.77h0a1.06,1.06,0,0,1,1,.76c1.78,6,6.44,12.05,11.92,12.05s10.14-6.06,11.92-12.05a1.09,1.09,0,0,1,1-.76c.31,0,1.31-.82,1.83-2.77s.06-4.25-.19-4.33C46.55,23,44.67,23.69,44.65,23.31Z" style="fill:#faefde;"/><path d="M46,18.21a.71.71,0,0,1-.7.79H38.11L32,22.43,25.95,19H18.71a.71.71,0,0,1-.7-.79l1.18-5.68L30.5,16.58h0a2.82,2.82,0,0,0,3,0l11.32-4.05Z" style="fill:#7e8189;"/><polygon points="53 18.75 51 21.75 49 18.75 49 16.25 51 15.25 53 16.25 53 18.75" style="fill:#f9e3ae;"/><path d="M47,54a1,1,0,0,0-1,1v2a1,1,0,0,0,2,0V55A1,1,0,0,0,47,54Z" style="fill:#8d6c9f;"/><path d="M52,54a1,1,0,0,0-1,1v2a1,1,0,0,0,2,0V55A1,1,0,0,0,52,54Z" style="fill:#8d6c9f;"/><path d="M56,55v2a1,1,0,0,0,2,0V55a1,1,0,0,0-2,0Z" style="fill:#8d6c9f;"/><path d="M17,54a1,1,0,0,0-1,1v2a1,1,0,0,0,2,0V55A1,1,0,0,0,17,54Z" style="fill:#8d6c9f;"/><path d="M12,54a1,1,0,0,0-1,1v2a1,1,0,0,0,2,0V55A1,1,0,0,0,12,54Z" style="fill:#8d6c9f;"/><path d="M7,54a1,1,0,0,0-1,1v2a1,1,0,0,0,2,0V55A1,1,0,0,0,7,54Z" style="fill:#8d6c9f;"/><path d="M55.75,41.38,43.4,35.47A23.15,23.15,0,0,0,45,31.73c1.23-.46,2.35-2,2.88-4a7.49,7.49,0,0,0,.18-3.34,2.67,2.67,0,0,0-1.79-2.26,1.93,1.93,0,0,0-.37-.06c0-1.09-.07-2-.13-2.41a2,2,0,0,0,.85-1.95L46,13.26l4-1.39v2.6a6.14,6.14,0,0,0-2,4.09c0,2.41,2.17,4.25,2.26,4.33a1,1,0,0,0,1.29,0c.09-.08,2.26-1.92,2.26-4.33A6,6,0,0,0,52,14.68V11.18l.52-.18a2,2,0,0,0,0-3.78L33.79.79a5,5,0,0,0-3.25,0L11.82,7.22a2,2,0,0,0,0,3.78l6.54,2.25-.69,4.5a2,2,0,0,0,.46,1.6l.13.12s0,0,0,.07c-.06.36-.11,1.19-.16,2.57a2,2,0,0,0-.37.06,2.67,2.67,0,0,0-1.78,2.26,7.49,7.49,0,0,0,.18,3.34c.54,2,1.66,3.5,2.88,4a23.15,23.15,0,0,0,1.61,3.74L8.25,41.38A11.06,11.06,0,0,0,2,51.3V59a3,3,0,0,0,3,3H59a3,3,0,0,0,3-3V51.3A11.06,11.06,0,0,0,55.75,41.38ZM50.9,21a4.21,4.21,0,0,1-1-2.44,4.21,4.21,0,0,1,1-2.44,4.21,4.21,0,0,1,1,2.44A4.21,4.21,0,0,1,50.9,21ZM44.2,45.6,46.73,49l-8.5,10.39A1,1,0,0,0,38,60h-2l7.7-22.14,1.17.56L44,44.86A1,1,0,0,0,44.2,45.6ZM25.5,60,17.25,49l2.55-3.4a1,1,0,0,0,.19-.74l-.92-6.44,1.17-.56L27.94,60Zm4.44-.33L22.6,38.56C25.07,41.73,28.36,44,32,44s6.93-2.27,9.4-5.44L34.06,59.67A1,1,0,0,0,34,60H30A1,1,0,0,0,29.94,59.67Zm1.25-57a3,3,0,0,1,1.95,0L51.87,9.11,33.14,15.54a3,3,0,0,1-1.95,0L12.46,9.11Zm-.65,14.75a5,5,0,0,0,3.25,0L44,13.92l.64,4.14-4.75,0h-.07a9,9,0,0,0-4,.95l-3.39,1.69a1,1,0,0,1-.89,0L28.17,19a9.37,9.37,0,0,0-4.1-.95l-4.42,0,.63-4.14ZM19.77,29.88h0c-.29,0-1.24-.78-1.73-2.62a5.55,5.55,0,0,1-.15-2.42c.11-.56.31-.72.33-.73a.6.6,0,0,1,.27.12A1,1,0,0,0,20,23.43l0-.69c0-.67.07-2.14.13-2.69l3.9,0h.06a7,7,0,0,1,3.13.74l3.38,1.69a3,3,0,0,0,2.68,0l3.39-1.69A7,7,0,0,1,39.86,20h.05l3.91,0c.05.49.1,2,.12,2.62,0,.34,0,.62,0,.77a1,1,0,0,0,1.54.79.72.72,0,0,1,.26-.12s.23.18.34.73A5.56,5.56,0,0,1,46,27.26c-.49,1.84-1.44,2.62-1.73,2.62h0a1,1,0,0,0-1,.72C41.59,36.26,37.18,42,32,42s-9.59-5.74-11.27-11.4A1,1,0,0,0,19.77,29.88ZM4,59V51.3a9,9,0,0,1,5.12-8.12l8.06-3.86.77,5.4L15.2,48.4a1,1,0,0,0,0,1.2L23,60H5A1,1,0,0,1,4,59Zm56,0a1,1,0,0,1-1,1H40.29l8.48-10.37a1,1,0,0,0,0-1.23L46,44.73l.77-5.4,8.06,3.86A9,9,0,0,1,60,51.3Z" style="fill:#8d6c9f;"/><path d="M32.17,10.11a1,1,0,0,0,.3,0l6.1-1.92A1,1,0,1,0,38,6.24l-6.1,1.92a1,1,0,0,0,.3,2Z" style="fill:#8d6c9f;"/></svg>
