<?xml version="1.0" encoding="iso-8859-1"?>
<!-- Generator: Adobe Illustrator 21.1.0, SVG Export Plug-In . SVG Version: 6.00 Build 0)  -->
<svg xmlns="http://www.w3.org/2000/svg" xmlns:xlink="http://www.w3.org/1999/xlink" version="1.1" id="Layer_1" x="0px" y="0px" viewBox="0 0 64 64" style="enable-background:new 0 0 64 64;" xml:space="preserve">
<g>
	<rect x="11" y="5" style="fill:#72CAAF;" width="50" height="34"/>
	<polygon style="fill:#84D5B5;" points="60,19.571 40.571,39 58.786,39 60,37.786  "/>
	<polygon style="fill:#84D5B5;" points="60,7.429 28.429,39 35.714,39 60,14.714  "/>
	<ellipse style="fill:#FAEFDE;" cx="40.5" cy="30" rx="2.5" ry="2"/>
	<ellipse style="fill:#FAEFDE;" cx="50.5" cy="28" rx="2.5" ry="2"/>
	<polygon style="fill:#84D5B5;" points="51.5,5 17.5,39 23.571,39 57.571,5  "/>
	<path style="fill:#CDA1A7;" d="M61,45H11c-1.105,0-2-0.895-2-2v-2c0-1.105,0.895-2,2-2h50c1.105,0,2,0.895,2,2v2   C63,44.105,62.105,45,61,45z"/>
	<circle style="fill:#FAEFDE;" cx="11" cy="14" r="5"/>
	<path style="fill:#85CBF8;" d="M18,41V29.625l2.464,1.663C22.117,32.404,24.065,33,26.059,33H30.5c1.381,0,2.5-1.119,2.5-2.5v0   c0-1.381-1.119-2.5-2.5-2.5h-2.98c-1.054,0-2.081-0.333-2.934-0.951l-4.159-3.014c-0.944-0.684-2-1.198-3.121-1.518l-1.374-0.393   c-2.569-0.734-5.293-0.734-7.863,0l-0.001,0c-1.996,0.57-3.765,1.747-5.061,3.368l0,0C1.708,27.115,1,29.133,1,31.212V40.5   C1,41.881,2.119,43,3.5,43h0C4.881,43,6,41.881,6,40.5V29.667V41L5.143,59.864C5.065,61.572,6.429,63,8.139,63h0.007   c1.599,0,2.916-1.254,2.996-2.85L12,43l0,0l0.857,17.15c0.08,1.597,1.398,2.85,2.996,2.85h0.007c1.71,0,3.075-1.428,2.997-3.136   L18,41z"/>
	<g>
		<path style="fill:#8D6C9F;" d="M62,38.23V7.06c0-1.66-1.35-3-3-3H13c-1.65,0-3,1.34-3,3v1.03C7.16,8.56,5,11.03,5,14    c0,2.97,2.16,5.44,5,5.91v0.8c-0.75,0.09-1.49,0.24-2.21,0.45c-2.2,0.63-4.13,1.91-5.56,3.71C0.79,26.66,0,28.92,0,31.21v9.29    C0,42.43,1.57,44,3.5,44c0.49,0,0.95-0.1,1.38-0.28l-0.74,16.1c-0.05,1.1,0.35,2.15,1.11,2.94C6.01,63.56,7.04,64,8.15,64    c1.83,0,3.38-1.23,3.85-2.92c0.47,1.69,2.02,2.92,3.85,2.92h0.01c1.1,0,2.13-0.44,2.89-1.24c0.76-0.79,1.16-1.84,1.11-2.94    l-0.63-13.76H61c1.65,0,3-1.35,3-3v-2C64,39.75,63.16,38.64,62,38.23z M7,14c0-1.86,1.27-3.43,3-3.87c0.32-0.09,0.65-0.13,1-0.13    s0.68,0.04,1,0.13c1.73,0.44,3,2.01,3,3.87s-1.27,3.43-3,3.87C11.68,17.96,11.35,18,11,18s-0.68-0.04-1-0.13    C8.27,17.43,7,15.86,7,14z M17.86,59.91c0.02,0.55-0.17,1.07-0.55,1.47c-0.38,0.4-0.9,0.62-1.45,0.62h-0.01    c-1.06,0-1.94-0.83-1.99-1.9l-0.7-14.04l-0.1-2L13,42.95C12.97,42.42,12.53,42,12,42s-0.97,0.42-1,0.95l-0.06,1.1l-0.1,2    l-0.7,14.05c-0.05,1.07-0.93,1.9-2,1.9c-0.55,0-1.07-0.22-1.45-0.62c-0.38-0.4-0.57-0.92-0.55-1.47L7,41V29.67c0-0.56-0.45-1-1-1    s-1,0.44-1,1V40.5C5,41.33,4.33,42,3.5,42S2,41.33,2,40.5v-9.29c0-1.84,0.63-3.65,1.79-5.09c1.17-1.47,2.75-2.52,4.55-3.04    c0.55-0.16,1.1-0.27,1.66-0.35c0.66-0.1,1.33-0.15,2-0.15c1.24,0,2.47,0.16,3.66,0.5l1.37,0.4c1.01,0.29,1.96,0.75,2.81,1.36    L24,27.86C25.03,28.6,26.25,29,27.52,29h2.98c0.83,0,1.5,0.67,1.5,1.5c0,0.83-0.67,1.5-1.5,1.5h-4.44c-1.8,0-3.54-0.53-5.04-1.54    l-2.46-1.66c-0.31-0.21-0.7-0.23-1.03-0.06C17.2,28.92,17,29.26,17,29.62v11.43l0.14,3.01l0.09,2L17.86,59.91z M62,43.06    c0,0.55-0.45,1-1,1H19.14L19,41v-9.49l0.91,0.61c1.82,1.23,3.95,1.88,6.15,1.88h4.44c1.93,0,3.5-1.57,3.5-3.5S32.43,27,30.5,27    h-2.98c-0.85,0-1.66-0.26-2.35-0.76l-4.16-3.02c-1.04-0.75-2.19-1.31-3.43-1.67l-1.37-0.39c-1.37-0.39-2.79-0.58-4.21-0.58v-0.67    c2.84-0.47,5-2.94,5-5.91c0-0.762-0.146-1.489-0.406-2.16C16.835,11.658,17,11.382,17,11.057v-2c0-0.552-0.447-1-1-1s-1,0.448-1,1    v0.494c-0.828-0.744-1.853-1.271-3-1.461V7.06c0-0.55,0.45-1,1-1h46c0.55,0,1,0.45,1,1v30.997H30c-0.553,0-1,0.448-1,1    s0.447,1,1,1h30v0.003h1c0.55,0,1,0.45,1,1V43.06z"/>
		<path style="fill:#8D6C9F;" d="M51,12.057c0.553,0,1-0.448,1-1v-2c0-0.552-0.447-1-1-1s-1,0.448-1,1v2    C50,11.609,50.447,12.057,51,12.057z"/>
		<path style="fill:#8D6C9F;" d="M46,12.057c0.553,0,1-0.448,1-1v-2c0-0.552-0.447-1-1-1s-1,0.448-1,1v2    C45,11.609,45.447,12.057,46,12.057z"/>
		<path style="fill:#8D6C9F;" d="M56,12.057c0.553,0,1-0.448,1-1v-2c0-0.552-0.447-1-1-1s-1,0.448-1,1v2    C55,11.609,55.447,12.057,56,12.057z"/>
		<path style="fill:#8D6C9F;" d="M41,12.057c0.553,0,1-0.448,1-1v-2c0-0.552-0.447-1-1-1s-1,0.448-1,1v2    C40,11.609,40.447,12.057,41,12.057z"/>
		<path style="fill:#8D6C9F;" d="M36,12.057c0.553,0,1-0.448,1-1v-2c0-0.552-0.447-1-1-1s-1,0.448-1,1v2    C35,11.609,35.447,12.057,36,12.057z"/>
		<path style="fill:#8D6C9F;" d="M31,8.057c-0.553,0-1,0.448-1,1v2c0,0.552,0.447,1,1,1s1-0.448,1-1v-2    C32,8.505,31.553,8.057,31,8.057z"/>
		<path style="fill:#8D6C9F;" d="M26,8.057c-0.553,0-1,0.448-1,1v2c0,0.552,0.447,1,1,1s1-0.448,1-1v-2    C27,8.505,26.553,8.057,26,8.057z"/>
		<path style="fill:#8D6C9F;" d="M21,8.057c-0.553,0-1,0.448-1,1v2c0,0.552,0.447,1,1,1s1-0.448,1-1v-2    C22,8.505,21.553,8.057,21,8.057z"/>
		<path style="fill:#8D6C9F;" d="M26,38.057h-4c-0.553,0-1,0.448-1,1s0.447,1,1,1h4c0.553,0,1-0.448,1-1S26.553,38.057,26,38.057z"/>
		<path style="fill:#FAEFDE;" d="M40.5,33c1.93,0,3.5-1.346,3.5-3c0-0.09-0.022-0.174-0.031-0.262    C43.977,29.686,44,29.639,44,29.585V19.82l8-1.6v7.081C51.544,25.114,51.039,25,50.5,25c-1.93,0-3.5,1.346-3.5,3s1.57,3,3.5,3    s3.5-1.346,3.5-3V17c0-0.3-0.135-0.583-0.366-0.773c-0.23-0.189-0.534-0.265-0.83-0.207l-10,2C42.337,18.113,42,18.523,42,19    v8.301C41.544,27.114,41.039,27,40.5,27c-1.93,0-3.5,1.346-3.5,3S38.57,33,40.5,33z M50.5,29c-0.799,0-1.5-0.467-1.5-1    s0.701-1,1.5-1s1.5,0.467,1.5,1S51.299,29,50.5,29z M40.5,29c0.799,0,1.5,0.467,1.5,1s-0.701,1-1.5,1S39,30.533,39,30    S39.701,29,40.5,29z"/>
	</g>
</g>
</svg>
